<svg width="512" height="512" viewBox="0 0 512 512" fill="none" xmlns="http://www.w3.org/2000/svg">
<rect width="512" height="512" rx="92" fill="white"/>
<g clip-path="url(#clip0_103_2)">
<path d="M233.399 341.66C244.924 339.277 256.097 339.316 268.911 339.98C278.482 340.449 289.694 341.347 301.609 341.347C320.83 363.85 337.942 392.525 380.524 411.629C383.181 412.801 384.431 415.535 384.431 419.442C384.431 421.395 384.431 427.138 384.431 427.255L126.59 426.435V425.927L141.514 408.699C183.12 360.646 211.17 346.231 233.399 341.66Z" fill="#000614"/>
<path d="M288.717 60.0276C288.717 128.16 282.623 119.526 328.253 149.569C341.965 158.593 350.951 173.399 350.326 189.807C350.247 192.073 350.13 194.222 350.013 196.097C349.739 201.254 351.654 206.215 355.326 209.888L380.798 235.359C383.571 238.133 384.821 242.157 383.806 245.985C376.422 273.567 353.959 319.392 310.946 321.58C252.971 324.549 212.85 296.303 126.668 395.885V268.058C124.754 217.545 154.367 105.189 288.717 60.0276ZM333.996 189.886C332.589 180.275 326.26 173.243 319.853 174.181C313.446 175.118 309.384 183.674 310.79 193.284C312.196 202.895 318.525 209.927 324.932 208.989C331.339 208.052 335.402 199.496 333.957 189.886H333.996Z" fill="#000614"/>
</g>
<defs>
<clipPath id="clip0_103_2">
<rect width="257.841" height="367.228" fill="white" transform="translate(126.59 60.0276)"/>
</clipPath>
</defs>
</svg>
