<svg width="512" height="512" viewBox="0 0 512 512" fill="none" xmlns="http://www.w3.org/2000/svg">
<path d="M50 144.296C50 92.2176 92.2177 50 144.296 50H367.704C419.782 50 462 92.2177 462 144.296V367.704C462 419.782 419.782 462 367.704 462H144.296C92.2176 462 50 419.782 50 367.704V144.296Z" fill="white"/>
<mask id="mask0_327_69" style="mask-type:alpha" maskUnits="userSpaceOnUse" x="50" y="50" width="412" height="412">
<path d="M50 144.296C50 92.2176 92.2177 50 144.296 50H367.704C419.782 50 462 92.2177 462 144.296V367.704C462 419.782 419.782 462 367.704 462H144.296C92.2176 462 50 419.782 50 367.704V144.296Z" fill="url(#paint0_linear_327_69)"/>
</mask>
<g mask="url(#mask0_327_69)">
<g opacity="0.9" filter="url(#filter0_f_327_69)">
<path d="M50 144.296C50 92.2176 92.2177 50 144.296 50H367.704C419.782 50 462 92.2177 462 144.296V367.704C462 419.782 419.782 462 367.704 462H144.296C92.2176 462 50 419.782 50 367.704V144.296Z" fill="url(#paint1_linear_327_69)"/>
<path d="M144.296 52.06H367.704C418.645 52.06 459.94 93.3554 459.94 144.296V367.704C459.94 418.645 418.645 459.94 367.704 459.94H144.296C93.3553 459.94 52.06 418.645 52.06 367.704V144.296C52.06 93.3553 93.3554 52.06 144.296 52.06Z" stroke="url(#paint2_linear_327_69)" stroke-width="4.12"/>
</g>
<g filter="url(#filter1_f_327_69)">
<circle cx="295.141" cy="328.1" r="224.54" fill="url(#paint3_radial_327_69)"/>
</g>
<g filter="url(#filter2_f_327_69)">
<path fill-rule="evenodd" clip-rule="evenodd" d="M280.065 367.588C284.885 372.821 289.626 378.401 294.542 384.187L294.543 384.187C334.379 431.069 385.748 491.522 584.11 491.522V695.678L113.859 688.6V492.9V455.82V410.5L114.012 410.436V311.508C111.922 258.219 143.164 139.731 284.848 92.0847C284.848 100.597 284.758 107.973 284.68 114.416C284.398 137.512 284.263 148.609 288.943 157.03C293.272 164.818 301.721 170.316 317.984 180.899C324.162 184.92 331.467 189.674 340.103 195.567C345.829 199.474 349.706 205.711 349.951 212.639C350.246 220.981 349.885 229.443 349.548 235.596C349.249 241.051 351.278 246.284 355.142 250.147L382.005 277.011C384.95 279.955 386.255 284.179 385.178 288.202C377.386 317.296 353.694 365.606 308.358 367.931C298.534 368.435 289.197 368.088 280.065 367.588ZM328.47 233.144C329.956 243.275 325.686 244.709 318.932 245.7C312.178 246.691 305.498 246.863 304.012 236.732C302.525 226.602 306.795 217.585 313.549 216.594C320.303 215.603 326.983 223.013 328.47 233.144Z" fill="url(#paint4_linear_327_69)"/>
</g>
<path d="M122.1 439.34V672.12L592.35 679.198V475.042C268.36 475.042 336.513 313.768 206.56 313.768C155.06 313.768 126.22 280.72 122.1 439.34Z" fill="#0A3FBA"/>
<path d="M122.1 439.34V672.12L592.35 679.198V475.042C268.36 475.042 336.513 313.768 206.56 313.768C155.06 313.768 126.22 280.72 122.1 439.34Z" fill="url(#paint5_linear_327_69)"/>
<path d="M375.48 476.42C307.912 431.924 285.526 357.627 282.78 326.04L122.1 394.02V476.42H375.48Z" fill="#0A40BA"/>
<path d="M375.48 476.42C307.912 431.924 285.526 357.627 282.78 326.04L122.1 394.02V476.42H375.48Z" fill="url(#paint6_linear_327_69)"/>
<g filter="url(#filter3_f_327_69)">
<path d="M282.78 326.04C285.527 357.627 307.912 431.924 375.48 476.42" stroke="url(#paint7_linear_327_69)" stroke-width="2.06"/>
</g>
<path fill-rule="evenodd" clip-rule="evenodd" d="M122.252 429.816V295.028C120.162 241.739 151.404 123.251 293.089 75.6047C293.089 114.632 291.197 129.78 297.184 140.55C303.157 151.296 316.975 157.683 348.343 179.087C354.07 182.994 357.946 189.231 358.191 196.159C358.486 204.501 358.125 212.963 357.788 219.116C357.489 224.571 359.519 229.804 363.382 233.667L390.245 260.531C393.19 263.475 394.495 267.699 393.418 271.722C385.626 300.817 361.935 349.126 316.598 351.451C304.485 352.072 293.109 351.4 281.948 350.742C236.792 348.076 195.141 345.617 122.252 429.816ZM327.172 229.22C333.926 228.229 338.196 226.795 336.709 216.664C335.223 206.533 328.542 199.123 321.789 200.114C315.035 201.105 310.765 210.122 312.251 220.252C313.738 230.383 320.418 230.211 327.172 229.22Z" fill="url(#paint8_linear_327_69)"/>
<g filter="url(#filter4_f_327_69)">
<mask id="path-11-inside-1_327_69" fill="white">
<path fill-rule="evenodd" clip-rule="evenodd" d="M122.252 429.816V295.027C120.162 241.739 151.404 123.25 293.089 75.6042C293.089 114.632 291.197 129.78 297.184 140.549C303.157 151.296 316.975 157.682 348.343 179.086C354.07 182.993 357.946 189.231 358.191 196.159C358.486 204.5 358.125 212.963 357.788 219.115C357.489 224.571 359.519 229.803 363.382 233.667L390.245 260.53C393.19 263.475 394.495 267.699 393.418 271.721C385.626 300.816 361.935 349.125 316.598 351.45C304.485 352.071 293.109 351.4 281.948 350.741C236.792 348.076 195.141 345.617 122.252 429.816ZM327.172 229.22C333.926 228.229 338.196 226.795 336.709 216.664C335.223 206.533 328.542 199.123 321.789 200.114C315.035 201.105 310.765 210.122 312.251 220.252C313.738 230.383 320.418 230.211 327.172 229.22Z"/>
</mask>
<path d="M122.252 295.027H126.372V294.946L126.369 294.866L122.252 295.027ZM122.252 429.816H118.132V440.87L125.367 432.512L122.252 429.816ZM293.089 75.6042H297.209V69.872L291.775 71.6991L293.089 75.6042ZM297.184 140.549L293.582 142.551L293.582 142.551L297.184 140.549ZM348.343 179.086L350.666 175.683L350.666 175.683L348.343 179.086ZM358.191 196.159L354.074 196.304L354.074 196.304L358.191 196.159ZM357.788 219.115L353.674 218.89L353.674 218.89L357.788 219.115ZM363.382 233.667L360.469 236.58L360.469 236.58L363.382 233.667ZM390.245 260.53L393.159 257.617L393.159 257.617L390.245 260.53ZM393.418 271.721L397.398 272.787L397.398 272.787L393.418 271.721ZM316.598 351.45L316.387 347.336L316.387 347.336L316.598 351.45ZM281.948 350.741L282.191 346.628L282.191 346.628L281.948 350.741ZM336.709 216.664L332.633 217.262L332.633 217.262L336.709 216.664ZM327.172 229.22L327.77 233.296L327.77 233.296L327.172 229.22ZM118.132 295.027V429.816H126.372V295.027H118.132ZM291.775 71.6991C147.955 120.063 115.992 240.535 118.135 295.189L126.369 294.866C124.333 242.943 154.853 126.437 294.402 79.5094L291.775 71.6991ZM300.785 138.548C298.301 134.079 297.282 128.451 297.01 118.56C296.736 108.596 297.209 95.3516 297.209 75.6042H288.969C288.969 94.8844 288.496 108.728 288.773 118.787C289.052 128.919 290.08 136.25 293.582 142.551L300.785 138.548ZM350.666 175.683C342.786 170.306 336.011 165.874 330.204 162.094C324.378 158.3 319.585 155.199 315.583 152.432C307.519 146.857 303.275 143.027 300.785 138.548L293.582 142.551C297.066 148.818 302.717 153.555 310.897 159.21C315.018 162.059 319.935 165.24 325.708 168.999C331.501 172.771 338.217 177.164 346.021 182.489L350.666 175.683ZM362.308 196.013C362.011 187.605 357.326 180.227 350.666 175.683L346.021 182.489C350.814 185.76 353.881 190.856 354.074 196.304L362.308 196.013ZM361.902 219.341C362.24 213.158 362.61 204.546 362.308 196.013L354.074 196.304C354.362 204.455 354.009 212.767 353.674 218.89L361.902 219.341ZM366.295 230.753C363.25 227.708 361.668 223.612 361.902 219.341L353.674 218.89C353.311 225.529 355.788 231.899 360.469 236.58L366.295 230.753ZM393.159 257.617L366.295 230.753L360.469 236.58L387.332 263.443L393.159 257.617ZM397.398 272.787C398.89 267.217 397.049 261.507 393.159 257.617L387.332 263.443C389.331 265.443 390.101 268.18 389.438 270.655L397.398 272.787ZM316.809 355.565C341.05 354.322 359.305 340.759 372.328 324.168C385.327 307.61 393.402 287.708 397.398 272.787L389.438 270.655C385.642 284.83 377.976 303.63 365.847 319.08C353.742 334.5 337.483 346.254 316.387 347.336L316.809 355.565ZM281.706 354.854C292.84 355.511 304.435 356.199 316.809 355.565L316.387 347.336C304.534 347.944 293.379 347.289 282.191 346.628L281.706 354.854ZM125.367 432.512C161.574 390.687 189.676 370.797 213.965 361.555C238.216 352.327 259.099 353.52 281.706 354.854L282.191 346.628C259.642 345.297 237.121 343.928 211.035 353.854C184.987 363.765 155.819 384.745 119.137 427.119L125.367 432.512ZM332.633 217.262C333.319 221.94 332.429 223.14 332.098 223.475C331.482 224.1 330.146 224.619 326.574 225.144L327.77 233.296C330.951 232.83 335.128 232.136 337.963 229.263C341.084 226.101 341.586 221.518 340.786 216.066L332.633 217.262ZM322.387 204.191C323.977 203.958 326.057 204.64 328.164 206.977C330.248 209.289 331.991 212.889 332.633 217.262L340.786 216.066C339.941 210.308 337.6 205.138 334.284 201.46C330.991 197.807 326.354 195.28 321.19 196.038L322.387 204.191ZM316.327 219.654C315.686 215.281 316.321 211.332 317.653 208.519C319 205.675 320.797 204.424 322.387 204.191L321.19 196.038C316.026 196.796 312.311 200.548 310.206 204.992C308.086 209.468 307.33 215.093 308.175 220.851L316.327 219.654ZM326.574 225.144C323.111 225.652 320.82 225.714 319.29 225.091C318.33 224.7 316.928 223.747 316.327 219.654L308.175 220.851C309.061 226.889 311.742 230.915 316.182 232.723C320.052 234.298 324.478 233.779 327.77 233.296L326.574 225.144Z" fill="url(#paint9_linear_327_69)" mask="url(#path-11-inside-1_327_69)"/>
</g>
<g filter="url(#filter5_f_327_69)">
<mask id="path-13-inside-2_327_69" fill="white">
<path fill-rule="evenodd" clip-rule="evenodd" d="M122.252 429.816V295.027C120.162 241.739 151.404 123.25 293.089 75.6042C293.089 114.632 291.197 129.78 297.184 140.549C303.157 151.296 316.975 157.682 348.343 179.086C354.07 182.993 357.946 189.231 358.191 196.159C358.486 204.5 358.125 212.963 357.788 219.115C357.489 224.571 359.519 229.803 363.382 233.667L390.245 260.53C393.19 263.475 394.495 267.699 393.418 271.721C385.626 300.816 361.935 349.125 316.598 351.45C304.485 352.071 293.109 351.4 281.948 350.741C236.792 348.076 195.141 345.617 122.252 429.816ZM327.172 229.22C333.926 228.229 338.196 226.795 336.709 216.664C335.223 206.533 328.542 199.123 321.789 200.114C315.035 201.105 310.765 210.122 312.251 220.252C313.738 230.383 320.418 230.211 327.172 229.22Z"/>
</mask>
<path d="M122.252 295.027H126.372V294.946L126.369 294.866L122.252 295.027ZM122.252 429.816H118.132V440.87L125.367 432.512L122.252 429.816ZM293.089 75.6042H297.209V69.872L291.775 71.6991L293.089 75.6042ZM297.184 140.549L293.582 142.551L293.582 142.551L297.184 140.549ZM348.343 179.086L350.666 175.683L350.666 175.683L348.343 179.086ZM358.191 196.159L354.074 196.304L354.074 196.304L358.191 196.159ZM357.788 219.115L353.674 218.89L353.674 218.89L357.788 219.115ZM363.382 233.667L360.469 236.58L360.469 236.58L363.382 233.667ZM390.245 260.53L393.159 257.617L393.159 257.617L390.245 260.53ZM393.418 271.721L397.398 272.787L397.398 272.787L393.418 271.721ZM316.598 351.45L316.387 347.336L316.387 347.336L316.598 351.45ZM281.948 350.741L282.191 346.628L282.191 346.628L281.948 350.741ZM336.709 216.664L332.633 217.262L332.633 217.262L336.709 216.664ZM327.172 229.22L327.77 233.296L327.77 233.296L327.172 229.22ZM118.132 295.027V429.816H126.372V295.027H118.132ZM291.775 71.6991C147.955 120.063 115.992 240.535 118.135 295.189L126.369 294.866C124.333 242.943 154.853 126.437 294.402 79.5094L291.775 71.6991ZM300.785 138.548C298.301 134.079 297.282 128.451 297.01 118.56C296.736 108.596 297.209 95.3516 297.209 75.6042H288.969C288.969 94.8844 288.496 108.728 288.773 118.787C289.052 128.919 290.08 136.25 293.582 142.551L300.785 138.548ZM350.666 175.683C342.786 170.306 336.011 165.874 330.204 162.094C324.378 158.3 319.585 155.199 315.583 152.432C307.519 146.857 303.275 143.027 300.785 138.548L293.582 142.551C297.066 148.818 302.717 153.555 310.897 159.21C315.018 162.059 319.935 165.24 325.708 168.999C331.501 172.771 338.217 177.164 346.021 182.489L350.666 175.683ZM362.308 196.013C362.011 187.605 357.326 180.227 350.666 175.683L346.021 182.489C350.814 185.76 353.881 190.856 354.074 196.304L362.308 196.013ZM361.902 219.341C362.24 213.158 362.61 204.546 362.308 196.013L354.074 196.304C354.362 204.455 354.009 212.767 353.674 218.89L361.902 219.341ZM366.295 230.753C363.25 227.708 361.668 223.612 361.902 219.341L353.674 218.89C353.311 225.529 355.788 231.899 360.469 236.58L366.295 230.753ZM393.159 257.617L366.295 230.753L360.469 236.58L387.332 263.443L393.159 257.617ZM397.398 272.787C398.89 267.217 397.049 261.507 393.159 257.617L387.332 263.443C389.331 265.443 390.101 268.18 389.438 270.655L397.398 272.787ZM316.809 355.565C341.05 354.322 359.305 340.759 372.328 324.168C385.327 307.61 393.402 287.708 397.398 272.787L389.438 270.655C385.642 284.83 377.976 303.63 365.847 319.08C353.742 334.5 337.483 346.254 316.387 347.336L316.809 355.565ZM281.706 354.854C292.84 355.511 304.435 356.199 316.809 355.565L316.387 347.336C304.534 347.944 293.379 347.289 282.191 346.628L281.706 354.854ZM125.367 432.512C161.574 390.687 189.676 370.797 213.965 361.555C238.216 352.327 259.099 353.52 281.706 354.854L282.191 346.628C259.642 345.297 237.121 343.928 211.035 353.854C184.987 363.765 155.819 384.745 119.137 427.119L125.367 432.512ZM332.633 217.262C333.319 221.94 332.429 223.14 332.098 223.475C331.482 224.1 330.146 224.619 326.574 225.144L327.77 233.296C330.951 232.83 335.128 232.136 337.963 229.263C341.084 226.101 341.586 221.518 340.786 216.066L332.633 217.262ZM322.387 204.191C323.977 203.958 326.057 204.64 328.164 206.977C330.248 209.289 331.991 212.889 332.633 217.262L340.786 216.066C339.941 210.308 337.6 205.138 334.284 201.46C330.991 197.807 326.354 195.28 321.19 196.038L322.387 204.191ZM316.327 219.654C315.686 215.281 316.321 211.332 317.653 208.519C319 205.675 320.797 204.424 322.387 204.191L321.19 196.038C316.026 196.796 312.311 200.548 310.206 204.992C308.086 209.468 307.33 215.093 308.175 220.851L316.327 219.654ZM326.574 225.144C323.111 225.652 320.82 225.714 319.29 225.091C318.33 224.7 316.928 223.747 316.327 219.654L308.175 220.851C309.061 226.889 311.742 230.915 316.182 232.723C320.052 234.298 324.478 233.779 327.77 233.296L326.574 225.144Z" fill="url(#paint10_radial_327_69)" mask="url(#path-13-inside-2_327_69)"/>
</g>
<g filter="url(#filter6_f_327_69)">
<path d="M327.471 231.258C330.75 230.777 334.216 230.127 336.497 227.816C338.92 225.361 339.519 221.623 338.747 216.364C337.953 210.953 335.762 206.175 332.754 202.839C329.758 199.515 325.76 197.45 321.49 198.076C317.219 198.703 313.983 201.83 312.068 205.874C310.145 209.934 309.419 215.14 310.213 220.551C311.028 226.103 313.389 229.361 316.959 230.815C320.244 232.152 324.136 231.747 327.471 231.258Z" stroke="url(#paint11_linear_327_69)" stroke-width="4.12"/>
</g>
</g>
<defs>
<filter id="filter0_f_327_69" x="41.76" y="41.76" width="428.48" height="428.48" filterUnits="userSpaceOnUse" color-interpolation-filters="sRGB">
<feFlood flood-opacity="0" result="BackgroundImageFix"/>
<feBlend mode="normal" in="SourceGraphic" in2="BackgroundImageFix" result="shape"/>
<feGaussianBlur stdDeviation="4.12" result="effect1_foregroundBlur_327_69"/>
</filter>
<filter id="filter1_f_327_69" x="-176.599" y="-143.64" width="943.48" height="943.48" filterUnits="userSpaceOnUse" color-interpolation-filters="sRGB">
<feFlood flood-opacity="0" result="BackgroundImageFix"/>
<feBlend mode="normal" in="SourceGraphic" in2="BackgroundImageFix" result="shape"/>
<feGaussianBlur stdDeviation="123.6" result="effect1_foregroundBlur_327_69"/>
</filter>
<filter id="filter2_f_327_69" x="72.6594" y="50.8847" width="552.65" height="685.993" filterUnits="userSpaceOnUse" color-interpolation-filters="sRGB">
<feFlood flood-opacity="0" result="BackgroundImageFix"/>
<feBlend mode="normal" in="SourceGraphic" in2="BackgroundImageFix" result="shape"/>
<feGaussianBlur stdDeviation="20.6" result="effect1_foregroundBlur_327_69"/>
</filter>
<filter id="filter3_f_327_69" x="277.634" y="321.831" width="102.533" height="159.569" filterUnits="userSpaceOnUse" color-interpolation-filters="sRGB">
<feFlood flood-opacity="0" result="BackgroundImageFix"/>
<feBlend mode="normal" in="SourceGraphic" in2="BackgroundImageFix" result="shape"/>
<feGaussianBlur stdDeviation="2.06" result="effect1_foregroundBlur_327_69"/>
</filter>
<filter id="filter4_f_327_69" x="117.212" y="70.6602" width="281.525" height="364.099" filterUnits="userSpaceOnUse" color-interpolation-filters="sRGB">
<feFlood flood-opacity="0" result="BackgroundImageFix"/>
<feBlend mode="normal" in="SourceGraphic" in2="BackgroundImageFix" result="shape"/>
<feGaussianBlur stdDeviation="2.472" result="effect1_foregroundBlur_327_69"/>
</filter>
<filter id="filter5_f_327_69" x="117.212" y="70.6602" width="281.525" height="364.099" filterUnits="userSpaceOnUse" color-interpolation-filters="sRGB">
<feFlood flood-opacity="0" result="BackgroundImageFix"/>
<feBlend mode="normal" in="SourceGraphic" in2="BackgroundImageFix" result="shape"/>
<feGaussianBlur stdDeviation="2.472" result="effect1_foregroundBlur_327_69"/>
</filter>
<filter id="filter6_f_327_69" x="302.892" y="190.959" width="43.1751" height="47.7662" filterUnits="userSpaceOnUse" color-interpolation-filters="sRGB">
<feFlood flood-opacity="0" result="BackgroundImageFix"/>
<feBlend mode="normal" in="SourceGraphic" in2="BackgroundImageFix" result="shape"/>
<feGaussianBlur stdDeviation="2.472" result="effect1_foregroundBlur_327_69"/>
</filter>
<linearGradient id="paint0_linear_327_69" x1="239.52" y1="31.46" x2="336.71" y2="466.063" gradientUnits="userSpaceOnUse">
<stop stop-color="#FF5501"/>
<stop offset="1" stop-color="#FF2101"/>
</linearGradient>
<linearGradient id="paint1_linear_327_69" x1="429.128" y1="82.8724" x2="274.407" y2="324.042" gradientUnits="userSpaceOnUse">
<stop stop-color="white" stop-opacity="0.46"/>
<stop offset="1" stop-color="white" stop-opacity="0"/>
</linearGradient>
<linearGradient id="paint2_linear_327_69" x1="422.553" y1="82.8723" x2="271.34" y2="266.957" gradientUnits="userSpaceOnUse">
<stop stop-color="white"/>
<stop offset="1" stop-color="white" stop-opacity="0"/>
</linearGradient>
<radialGradient id="paint3_radial_327_69" cx="0" cy="0" r="1" gradientUnits="userSpaceOnUse" gradientTransform="translate(295.141 328.1) rotate(90) scale(224.54)">
<stop stop-color="#0B42B9"/>
<stop offset="1" stop-color="white" stop-opacity="0"/>
</radialGradient>
<linearGradient id="paint4_linear_327_69" x1="274.539" y1="233.34" x2="171.539" y2="344.58" gradientUnits="userSpaceOnUse">
<stop stop-color="white" stop-opacity="0"/>
<stop offset="1" stop-color="#4681FF"/>
</linearGradient>
<linearGradient id="paint5_linear_327_69" x1="282.78" y1="344.58" x2="587.691" y2="617.197" gradientUnits="userSpaceOnUse">
<stop stop-color="#0A42BA"/>
<stop offset="1" stop-color="#0173FB"/>
</linearGradient>
<linearGradient id="paint6_linear_327_69" x1="-143.64" y1="750.4" x2="168.338" y2="264.49" gradientUnits="userSpaceOnUse">
<stop stop-color="#0A3FB7"/>
<stop offset="1" stop-color="#0A42B9"/>
</linearGradient>
<linearGradient id="paint7_linear_327_69" x1="268.36" y1="307.5" x2="330.16" y2="433.16" gradientUnits="userSpaceOnUse">
<stop stop-color="#0088FF"/>
<stop offset="1" stop-color="white" stop-opacity="0"/>
</linearGradient>
<linearGradient id="paint8_linear_327_69" x1="299.258" y1="85.0206" x2="34.081" y2="269.155" gradientUnits="userSpaceOnUse">
<stop stop-color="#3B96FF"/>
<stop offset="1" stop-color="#0A3DB4"/>
</linearGradient>
<linearGradient id="paint9_linear_327_69" x1="330.158" y1="107.68" x2="301.318" y2="192.14" gradientUnits="userSpaceOnUse">
<stop stop-color="#9FCDFF"/>
<stop offset="1" stop-color="white" stop-opacity="0"/>
</linearGradient>
<radialGradient id="paint10_radial_327_69" cx="0" cy="0" r="1" gradientUnits="userSpaceOnUse" gradientTransform="translate(293.08 350.76) rotate(-107.969) scale(80.1284 109.343)">
<stop stop-color="#8DC4FF"/>
<stop offset="1" stop-color="#5EABFF" stop-opacity="0"/>
</radialGradient>
<linearGradient id="paint11_linear_327_69" x1="328.677" y1="201.811" x2="326.945" y2="219.011" gradientUnits="userSpaceOnUse">
<stop stop-color="#89BEFF"/>
<stop offset="1" stop-color="#0273FA" stop-opacity="0"/>
</linearGradient>
</defs>
</svg>
