<svg width="195" height="129" viewBox="0 0 195 129" fill="none" xmlns="http://www.w3.org/2000/svg">
<path d="M13.1756 119.166C10.6255 119.166 8.35869 118.583 6.37527 117.417C4.42334 116.22 2.86494 114.612 1.70007 112.595C0.566691 110.578 0 108.293 0 105.74C0 103.218 0.566691 100.949 1.70007 98.9321C2.83345 96.9149 4.39186 95.339 6.37527 94.2044C8.35869 93.0382 10.6255 92.4552 13.1756 92.4552C14.9071 92.4552 16.5285 92.7703 18.0397 93.4007C19.5508 93.9995 20.8574 94.8348 21.9593 95.9064C23.0927 96.978 23.927 98.2229 24.4622 99.6412L19.787 101.816C19.2518 100.492 18.386 99.4363 17.1896 98.6484C16.0248 97.8289 14.6867 97.4192 13.1756 97.4192C11.7274 97.4192 10.4208 97.7817 9.25595 98.5066C8.12257 99.2 7.22531 100.193 6.56417 101.485C5.90303 102.746 5.57246 104.18 5.57246 105.787C5.57246 107.395 5.90303 108.844 6.56417 110.137C7.22531 111.397 8.12257 112.39 9.25595 113.115C10.4208 113.84 11.7274 114.202 13.1756 114.202C14.7182 114.202 16.0562 113.808 17.1896 113.021C18.3545 112.201 19.2203 111.114 19.787 109.758L24.4622 111.98C23.9584 113.336 23.1399 114.565 22.0065 115.668C20.9046 116.74 19.5981 117.591 18.0869 118.221C16.5757 118.851 14.9386 119.166 13.1756 119.166Z" fill="white"/>
<path d="M38.7921 119.166C36.8717 119.166 35.1874 118.741 33.7391 117.89C32.2909 117.007 31.1575 115.794 30.339 114.25C29.5519 112.674 29.1584 110.862 29.1584 108.813V93.0225H34.4947V108.34C34.4947 109.506 34.7309 110.531 35.2031 111.413C35.6753 112.296 36.3365 112.989 37.1865 113.493C38.0365 113.966 39.0125 114.202 40.1144 114.202C41.2478 114.202 42.2395 113.95 43.0895 113.446C43.9396 112.942 44.6007 112.233 45.073 111.319C45.5767 110.405 45.8286 109.333 45.8286 108.104V93.0225H51.1177V118.599H46.0647V113.588L46.6314 114.25C46.0332 115.826 45.0415 117.039 43.6562 117.89C42.271 118.741 40.6496 119.166 38.7921 119.166Z" fill="white"/>
<path d="M57.3483 118.599V93.0225H62.4485V98.1756L61.9763 97.4192C62.543 95.7488 63.456 94.5511 64.7153 93.8262C65.9746 93.0698 67.4858 92.6915 69.2488 92.6915H70.8072V97.561H68.5877C66.8247 97.561 65.3922 98.1126 64.2903 99.2157C63.2199 100.287 62.6847 101.832 62.6847 103.849V118.599H57.3483Z" fill="white"/>
<path d="M74.4579 118.599V93.0225H79.7942V118.599H74.4579ZM74.4579 89.524V83.3781H79.7942V89.524H74.4579Z" fill="white"/>
<path d="M98.3589 119.166C95.9032 119.166 93.6522 118.583 91.6058 117.417C89.5909 116.251 87.9853 114.659 86.7889 112.642C85.5926 110.625 84.9944 108.34 84.9944 105.787C84.9944 103.203 85.5926 100.918 86.7889 98.9321C87.9853 96.9149 89.5909 95.339 91.6058 94.2044C93.6207 93.0382 95.8717 92.4552 98.3589 92.4552C100.878 92.4552 103.129 93.0382 105.112 94.2044C107.127 95.339 108.717 96.9149 109.882 98.9321C111.078 100.918 111.676 103.203 111.676 105.787C111.676 108.372 111.078 110.672 109.882 112.69C108.685 114.707 107.08 116.298 105.065 117.465C103.05 118.599 100.815 119.166 98.3589 119.166ZM98.3589 114.202C99.8701 114.202 101.208 113.84 102.373 113.115C103.538 112.39 104.451 111.397 105.112 110.137C105.805 108.844 106.151 107.395 106.151 105.787C106.151 104.18 105.805 102.746 105.112 101.485C104.451 100.224 103.538 99.2315 102.373 98.5066C101.208 97.7817 99.8701 97.4192 98.3589 97.4192C96.8792 97.4192 95.5412 97.7817 94.3448 98.5066C93.18 99.2315 92.2512 100.224 91.5586 101.485C90.8975 102.746 90.5669 104.18 90.5669 105.787C90.5669 107.395 90.8975 108.844 91.5586 110.137C92.2512 111.397 93.18 112.39 94.3448 113.115C95.5412 113.84 96.8792 114.202 98.3589 114.202Z" fill="white"/>
<path d="M126.331 119.166C123.718 119.166 121.419 118.52 119.436 117.228C117.484 115.936 116.115 114.202 115.328 112.028L119.436 110.089C120.129 111.539 121.073 112.69 122.269 113.541C123.497 114.392 124.851 114.817 126.331 114.817C127.59 114.817 128.613 114.533 129.4 113.966C130.187 113.399 130.581 112.627 130.581 111.649C130.581 111.019 130.408 110.515 130.061 110.137C129.715 109.727 129.274 109.396 128.739 109.144C128.235 108.892 127.716 108.703 127.181 108.576L123.167 107.442C120.963 106.812 119.31 105.866 118.208 104.605C117.138 103.313 116.603 101.816 116.603 100.114C116.603 98.5696 116.996 97.2301 117.783 96.0955C118.57 94.9293 119.656 94.0311 121.042 93.4007C122.427 92.7703 123.985 92.4552 125.717 92.4552C128.047 92.4552 130.124 93.0382 131.95 94.2044C133.776 95.339 135.067 96.9307 135.823 98.9793L131.714 100.918C131.211 99.6885 130.408 98.7114 129.306 97.9865C128.235 97.2616 127.023 96.8992 125.67 96.8992C124.505 96.8992 123.576 97.1828 122.883 97.7502C122.191 98.286 121.844 98.9951 121.844 99.8776C121.844 100.476 122.002 100.981 122.317 101.39C122.632 101.769 123.041 102.084 123.545 102.336C124.048 102.557 124.568 102.746 125.103 102.903L129.259 104.132C131.368 104.731 132.989 105.677 134.123 106.969C135.256 108.23 135.823 109.743 135.823 111.508C135.823 113.021 135.414 114.36 134.595 115.526C133.808 116.661 132.706 117.559 131.289 118.221C129.873 118.851 128.22 119.166 126.331 119.166Z" fill="white"/>
<path d="M141.051 118.599V93.0225H146.388V118.599H141.051ZM141.051 89.524V83.3781H146.388V89.524H141.051Z" fill="white"/>
<path d="M163.677 118.883C161.001 118.883 158.923 118.126 157.444 116.614C155.964 115.101 155.224 112.973 155.224 110.231V97.8447H150.738V93.0225H151.446C152.643 93.0225 153.571 92.6758 154.233 91.9824C154.894 91.289 155.224 90.3435 155.224 89.1458V87.1602H160.561V93.0225H166.369V97.8447H160.561V109.995C160.561 110.877 160.702 111.634 160.986 112.264C161.269 112.863 161.725 113.336 162.355 113.682C162.985 113.998 163.803 114.155 164.811 114.155C165.063 114.155 165.346 114.139 165.661 114.108C165.976 114.076 166.275 114.045 166.558 114.013V118.599C166.117 118.662 165.629 118.725 165.094 118.788C164.559 118.851 164.087 118.883 163.677 118.883Z" fill="white"/>
<path d="M174.032 129C173.403 129 172.773 128.937 172.143 128.811C171.545 128.716 170.994 128.559 170.491 128.338V123.752C170.868 123.847 171.325 123.926 171.86 123.989C172.395 124.083 172.915 124.131 173.419 124.131C174.898 124.131 175.984 123.8 176.677 123.138C177.401 122.507 178.046 121.53 178.613 120.207L180.313 116.33L180.219 120.821L169.168 93.0225H174.882L183.052 114.344H181.116L189.239 93.0225H195L183.713 121.388C183.115 122.901 182.36 124.225 181.447 125.36C180.565 126.526 179.51 127.424 178.283 128.054C177.086 128.685 175.67 129 174.032 129Z" fill="white"/>
<g clip-path="url(#clip0_1419_592)">
<path d="M93.754 45.8466C95.6239 45.4586 97.4367 45.465 99.5158 45.5731C101.069 45.6494 102.888 45.7957 104.821 45.7957C107.94 49.4588 110.716 54.1268 117.625 57.2367C118.056 57.4274 118.259 57.8726 118.259 58.5086C118.259 58.8266 118.259 59.7614 118.259 59.7805L76.4243 59.647V59.5643L78.8456 56.7597C85.5962 48.9373 90.1473 46.5906 93.754 45.8466Z" fill="white"/>
<path d="M102.729 0C102.729 11.0912 101.741 9.68571 109.144 14.5763C111.369 16.0453 112.827 18.4556 112.725 21.1267C112.713 21.4955 112.694 21.8453 112.675 22.1506C112.63 22.99 112.941 23.7977 113.537 24.3955L117.669 28.542C118.119 28.9935 118.322 29.6486 118.157 30.2718C116.959 34.7617 113.315 42.2216 106.336 42.5777C96.9295 43.061 90.4198 38.463 76.4368 54.6737V33.865C76.1262 25.642 80.9309 7.35173 102.729 0ZM110.076 21.1394C109.848 19.5749 108.821 18.4302 107.781 18.5828C106.742 18.7355 106.082 20.1282 106.311 21.6927C106.539 23.2572 107.566 24.4019 108.605 24.2493C109.645 24.0966 110.304 22.7039 110.069 21.1394H110.076Z" fill="white"/>
</g>
<defs>
<clipPath id="clip0_1419_592">
<rect width="41.8348" height="59.7805" fill="white" transform="translate(76.4243)"/>
</clipPath>
</defs>
</svg>
