<svg width="315" height="74" viewBox="0 0 315 74" fill="none" xmlns="http://www.w3.org/2000/svg">
<path d="M24.2884 57.7977C20.2278 57.7977 16.6184 56.8622 13.4601 54.9912C10.352 53.0697 7.87052 50.4908 6.01567 47.2545C4.21095 44.0183 3.30859 40.3522 3.30859 36.2563C3.30859 32.211 4.21095 28.5702 6.01567 25.3339C7.82038 22.0976 10.3019 19.5693 13.4601 17.7489C16.6184 15.8779 20.2278 14.9424 24.2884 14.9424C27.0456 14.9424 29.6274 15.4481 32.0337 16.4594C34.4399 17.4202 36.5204 18.7602 38.275 20.4795C40.0797 22.1988 41.4082 24.1961 42.2604 26.4716L34.8159 29.9607C33.9637 27.8369 32.5851 26.143 30.6801 24.8788C28.8253 23.5641 26.6947 22.9067 24.2884 22.9067C21.9824 22.9067 19.902 23.4882 18.0471 24.6512C16.2424 25.7637 14.8137 27.3566 13.7609 29.4298C12.7082 31.4525 12.1818 33.7532 12.1818 36.3321C12.1818 38.911 12.7082 41.2371 13.7609 43.3103C14.8137 45.333 16.2424 46.9259 18.0471 48.0889C19.902 49.2519 21.9824 49.8334 24.2884 49.8334C26.7448 49.8334 28.8754 49.2014 30.6801 47.9372C32.535 46.6225 33.9136 44.8779 34.8159 42.7035L42.2604 46.2685C41.4583 48.4429 40.1549 50.415 38.3502 52.1848C36.5956 53.9041 34.5151 55.2694 32.1089 56.2807C29.7026 57.292 27.0958 57.7977 24.2884 57.7977Z" fill="white"/>
<path d="M65.0784 57.7977C62.0204 57.7977 59.3384 57.115 57.0324 55.7497C54.7264 54.3339 52.9216 52.3871 51.6182 49.9093C50.365 47.381 49.7383 44.4734 49.7383 41.1865V15.8526H58.2355V40.428C58.2355 42.299 58.6115 43.9424 59.3635 45.3583C60.1154 46.7742 61.1682 47.8866 62.5217 48.6957C63.8753 49.4542 65.4293 49.8334 67.1839 49.8334C68.9886 49.8334 70.5678 49.4289 71.9213 48.6198C73.2748 47.8108 74.3276 46.673 75.0795 45.2066C75.8816 43.7402 76.2827 42.0209 76.2827 40.0488V15.8526H84.7047V56.8875H76.6587V48.8474L77.561 49.9093C76.6085 52.4376 75.0294 54.3844 72.8237 55.7497C70.6179 57.115 68.0361 57.7977 65.0784 57.7977Z" fill="white"/>
<path d="M94.6259 56.8875V15.8526H102.747V24.1203L101.995 22.9067C102.898 20.2267 104.351 18.3051 106.357 17.1421C108.362 15.9285 110.768 15.3217 113.575 15.3217H116.057V23.1342H112.523C109.715 23.1342 107.434 24.0192 105.68 25.789C103.975 27.5083 103.123 29.986 103.123 33.2223V56.8875H94.6259Z" fill="white"/>
<path d="M121.87 56.8875V15.8526H130.367V56.8875H121.87ZM121.87 10.2397V0.379246H130.367V10.2397H121.87Z" fill="white"/>
<path d="M159.928 57.7977C156.018 57.7977 152.434 56.8622 149.175 54.9912C145.967 53.1203 143.41 50.5667 141.505 47.3304C139.6 44.0941 138.648 40.428 138.648 36.3321C138.648 32.1857 139.6 28.5196 141.505 25.3339C143.41 22.0976 145.967 19.5693 149.175 17.7489C152.384 15.8779 155.968 14.9424 159.928 14.9424C163.939 14.9424 167.523 15.8779 170.681 17.7489C173.89 19.5693 176.421 22.0976 178.276 25.3339C180.181 28.5196 181.134 32.1857 181.134 36.3321C181.134 40.4786 180.181 44.17 178.276 47.4062C176.371 50.6425 173.815 53.1961 170.606 55.0671C167.398 56.8875 163.838 57.7977 159.928 57.7977ZM159.928 49.8334C162.335 49.8334 164.465 49.2519 166.32 48.0889C168.175 46.9259 169.629 45.333 170.681 43.3103C171.784 41.2371 172.336 38.911 172.336 36.3321C172.336 33.7532 171.784 31.4525 170.681 29.4298C169.629 27.4071 168.175 25.8143 166.32 24.6512C164.465 23.4882 162.335 22.9067 159.928 22.9067C157.572 22.9067 155.442 23.4882 153.537 24.6512C151.682 25.8143 150.203 27.4071 149.1 29.4298C148.047 31.4525 147.521 33.7532 147.521 36.3321C147.521 38.911 148.047 41.2371 149.1 43.3103C150.203 45.333 151.682 46.9259 153.537 48.0889C155.442 49.2519 157.572 49.8334 159.928 49.8334Z" fill="white"/>
<path d="M204.469 57.7977C200.308 57.7977 196.648 56.7611 193.49 54.6878C190.382 52.6146 188.201 49.8334 186.948 46.3443L193.49 43.2345C194.593 45.5606 196.097 47.4062 198.002 48.7715C199.957 50.1368 202.112 50.8195 204.469 50.8195C206.474 50.8195 208.103 50.3644 209.356 49.4542C210.61 48.544 211.236 47.3051 211.236 45.7375C211.236 44.7262 210.961 43.9171 210.409 43.3103C209.858 42.653 209.156 42.122 208.304 41.7175C207.502 41.313 206.674 41.0096 205.822 40.8073L199.43 38.9869C195.921 37.9756 193.289 36.4586 191.535 34.4359C189.83 32.3627 188.978 29.9607 188.978 27.2301C188.978 24.7524 189.605 22.6033 190.858 20.7829C192.111 18.9119 193.841 17.4708 196.047 16.4594C198.252 15.4481 200.734 14.9424 203.491 14.9424C207.201 14.9424 210.509 15.8779 213.417 17.7489C216.325 19.5693 218.38 22.1229 219.583 25.4097L213.041 28.5196C212.239 26.5475 210.961 24.9799 209.206 23.8169C207.502 22.6539 205.572 22.0723 203.416 22.0723C201.561 22.0723 200.082 22.5274 198.979 23.4376C197.876 24.2973 197.325 25.435 197.325 26.8509C197.325 27.8117 197.576 28.6207 198.077 29.2781C198.578 29.8849 199.23 30.3906 200.032 30.7951C200.834 31.1491 201.661 31.4525 202.514 31.7053L209.131 33.6774C212.49 34.6382 215.071 36.1552 216.876 38.2284C218.681 40.2511 219.583 42.6783 219.583 45.51C219.583 47.9372 218.931 50.0863 217.628 51.9572C216.375 53.7776 214.62 55.2188 212.364 56.2807C210.108 57.292 207.476 57.7977 204.469 57.7977Z" fill="white"/>
<path d="M227.909 56.8875V15.8526H236.406V56.8875H227.909ZM227.909 10.2397V0.379246H236.406V10.2397H227.909Z" fill="white"/>
<path d="M263.937 57.3426C259.676 57.3426 256.367 56.129 254.011 53.7018C251.655 51.2746 250.477 47.8613 250.477 43.462V23.5893H243.333V15.8526H244.461C246.366 15.8526 247.845 15.2964 248.897 14.1839C249.95 13.0715 250.477 11.5545 250.477 9.63295V6.44725H258.974V15.8526H268.223V23.5893H258.974V43.0828C258.974 44.4987 259.199 45.7123 259.651 46.7236C260.102 47.6844 260.829 48.4429 261.831 48.9991C262.834 49.5048 264.137 49.7576 265.741 49.7576C266.142 49.7576 266.594 49.7323 267.095 49.6817C267.596 49.6312 268.073 49.5806 268.524 49.53V56.8875C267.822 56.9886 267.045 57.0898 266.193 57.1909C265.34 57.292 264.588 57.3426 263.937 57.3426Z" fill="white"/>
<path d="M280.425 73.5745C279.423 73.5745 278.42 73.4734 277.417 73.2711C276.465 73.1194 275.588 72.8666 274.786 72.5126V65.1551C275.387 65.3068 276.114 65.4333 276.966 65.5344C277.819 65.6861 278.646 65.7619 279.448 65.7619C281.804 65.7619 283.533 65.231 284.636 64.1691C285.789 63.1578 286.817 61.5902 287.719 59.4664L290.426 53.2467L290.276 60.4524L272.68 15.8526H281.779L294.788 50.061H291.705L304.639 15.8526H313.813L295.841 61.3627C294.888 63.7899 293.685 65.9137 292.231 67.7341C290.828 69.605 289.148 71.0462 287.193 72.0575C285.288 73.0688 283.032 73.5745 280.425 73.5745Z" fill="white"/>
</svg>
