<svg width="315" height="73" viewBox="0 0 315 73" fill="none" xmlns="http://www.w3.org/2000/svg">
<path d="M24.2884 57.0166C20.2278 57.0166 16.6184 56.0938 13.4601 54.2481C10.352 52.3526 7.87052 49.8085 6.01567 46.616C4.21095 43.4234 3.30859 39.8069 3.30859 35.7663C3.30859 31.7757 4.21095 28.1841 6.01567 24.9915C7.82038 21.799 10.3019 19.3048 13.4601 17.509C16.6184 15.6634 20.2278 14.7405 24.2884 14.7405C27.0456 14.7405 29.6274 15.2394 32.0337 16.237C34.4399 17.1848 36.5204 18.5067 38.275 20.2027C40.0797 21.8988 41.4082 23.8692 42.2604 26.1139L34.8159 29.5559C33.9637 27.4608 32.5851 25.7897 30.6801 24.5426C28.8253 23.2456 26.6947 22.5971 24.2884 22.5971C21.9824 22.5971 19.902 23.1708 18.0471 24.3181C16.2424 25.4156 14.8137 26.9869 13.7609 29.0321C12.7082 31.0274 12.1818 33.2971 12.1818 35.8412C12.1818 38.3852 12.7082 40.6799 13.7609 42.7251C14.8137 44.7204 16.2424 46.2917 18.0471 47.439C19.902 48.5864 21.9824 49.16 24.2884 49.16C26.7448 49.16 28.8754 48.5365 30.6801 47.2894C32.535 45.9924 33.9136 44.2715 34.8159 42.1265L42.2604 45.6432C41.4583 47.7882 40.1549 49.7337 38.3502 51.4796C36.5956 53.1756 34.5151 54.5225 32.1089 55.5201C29.7026 56.5178 27.0958 57.0166 24.2884 57.0166Z" fill="#0443D3"/>
<path d="M65.0784 57.0166C62.0204 57.0166 59.3384 56.3432 57.0324 54.9964C54.7264 53.5996 52.9216 51.6791 51.6182 49.2348C50.365 46.7407 49.7383 43.8724 49.7383 40.63V15.6384H58.2355V39.8817C58.2355 41.7274 58.6115 43.3486 59.3635 44.7453C60.1154 46.1421 61.1682 47.2395 62.5217 48.0376C63.8753 48.7859 65.4293 49.16 67.1839 49.16C68.9886 49.16 70.5678 48.761 71.9213 47.9628C73.2748 47.1647 74.3276 46.0423 75.0795 44.5957C75.8816 43.1491 76.2827 41.453 76.2827 39.5076V15.6384H84.7047V56.1187H76.6587V48.1873L77.561 49.2348C76.6085 51.729 75.0294 53.6495 72.8237 54.9964C70.6179 56.3432 68.0361 57.0166 65.0784 57.0166Z" fill="#0443D3"/>
<path d="M94.6259 56.1187V15.6384H102.747V23.7943L101.995 22.5971C102.898 19.9533 104.351 18.0578 106.357 16.9104C108.362 15.7132 110.768 15.1146 113.575 15.1146H116.057V22.8216H112.523C109.715 22.8216 107.434 23.6946 105.68 25.4405C103.975 27.1365 103.123 29.5808 103.123 32.7733V56.1187H94.6259Z" fill="#0443D3"/>
<path d="M121.87 56.1187V15.6384H130.367V56.1187H121.87ZM121.87 10.1014V0.374115H130.367V10.1014H121.87Z" fill="#0443D3"/>
<path d="M159.928 57.0166C156.018 57.0166 152.434 56.0938 149.175 54.2481C145.967 52.4024 143.41 49.8833 141.505 46.6908C139.6 43.4983 138.648 39.8817 138.648 35.8412C138.648 31.7507 139.6 28.1342 141.505 24.9915C143.41 21.799 145.967 19.3048 149.175 17.509C152.384 15.6634 155.968 14.7405 159.928 14.7405C163.939 14.7405 167.523 15.6634 170.681 17.509C173.89 19.3048 176.421 21.799 178.276 24.9915C180.181 28.1342 181.134 31.7507 181.134 35.8412C181.134 39.9316 180.181 43.5731 178.276 46.7656C176.371 49.9582 173.815 52.4773 170.606 54.3229C167.398 56.1187 163.838 57.0166 159.928 57.0166ZM159.928 49.16C162.335 49.16 164.465 48.5864 166.32 47.439C168.175 46.2917 169.629 44.7204 170.681 42.7251C171.784 40.6799 172.336 38.3852 172.336 35.8412C172.336 33.2971 171.784 31.0274 170.681 29.0321C169.629 27.0368 168.175 25.4654 166.32 24.3181C164.465 23.1708 162.335 22.5971 159.928 22.5971C157.572 22.5971 155.442 23.1708 153.537 24.3181C151.682 25.4654 150.203 27.0368 149.1 29.0321C148.047 31.0274 147.521 33.2971 147.521 35.8412C147.521 38.3852 148.047 40.6799 149.1 42.7251C150.203 44.7204 151.682 46.2917 153.537 47.439C155.442 48.5864 157.572 49.16 159.928 49.16Z" fill="#0443D3"/>
<path d="M204.469 57.0166C200.308 57.0166 196.648 55.994 193.49 53.9488C190.382 51.9036 188.201 49.16 186.948 45.7181L193.49 42.6502C194.593 44.9449 196.097 46.7656 198.002 48.1125C199.957 49.4593 202.112 50.1327 204.469 50.1327C206.474 50.1327 208.103 49.6838 209.356 48.7859C210.61 47.888 211.236 46.6659 211.236 45.1195C211.236 44.1218 210.961 43.3237 210.409 42.7251C209.858 42.0766 209.156 41.5528 208.304 41.1537C207.502 40.7547 206.674 40.4554 205.822 40.2558L199.43 38.46C195.921 37.4624 193.289 35.9659 191.535 33.9705C189.83 31.9253 188.978 29.5559 188.978 26.8622C188.978 24.4179 189.605 22.2978 190.858 20.502C192.111 18.6564 193.841 17.2347 196.047 16.237C198.252 15.2394 200.734 14.7405 203.491 14.7405C207.201 14.7405 210.509 15.6634 213.417 17.509C216.325 19.3048 218.38 21.824 219.583 25.0664L213.041 28.1342C212.239 26.1887 210.961 24.6424 209.206 23.495C207.502 22.3477 205.572 21.7741 203.416 21.7741C201.561 21.7741 200.082 22.223 198.979 23.1209C197.876 23.9689 197.325 25.0913 197.325 26.488C197.325 27.4358 197.576 28.234 198.077 28.8824C198.578 29.481 199.23 29.9799 200.032 30.3789C200.834 30.7281 201.661 31.0274 202.514 31.2768L209.131 33.2223C212.49 34.1701 215.071 35.6666 216.876 37.7118C218.681 39.7071 219.583 42.1015 219.583 44.895C219.583 47.2894 218.931 49.4094 217.628 51.2551C216.375 53.0509 214.62 54.4726 212.364 55.5201C210.108 56.5178 207.476 57.0166 204.469 57.0166Z" fill="#0443D3"/>
<path d="M227.909 56.1187V15.6384H236.406V56.1187H227.909ZM227.909 10.1014V0.374115H236.406V10.1014H227.909Z" fill="#0443D3"/>
<path d="M263.937 56.5677C259.676 56.5677 256.367 55.3705 254.011 52.9761C251.655 50.5817 250.477 47.2146 250.477 42.8747V23.2706H243.333V15.6384H244.461C246.366 15.6384 247.845 15.0897 248.897 13.9923C249.95 12.8948 250.477 11.3983 250.477 9.50277V6.36012H258.974V15.6384H268.223V23.2706H258.974V42.5006C258.974 43.8973 259.199 45.0945 259.651 46.0922C260.102 47.04 260.829 47.7882 261.831 48.3369C262.834 48.8358 264.137 49.0852 265.741 49.0852C266.142 49.0852 266.594 49.0603 267.095 49.0104C267.596 48.9605 268.073 48.9106 268.524 48.8607V56.1187C267.822 56.2185 267.045 56.3183 266.193 56.418C265.34 56.5178 264.588 56.5677 263.937 56.5677Z" fill="#0443D3"/>
<path d="M280.425 72.5802C279.423 72.5802 278.42 72.4805 277.417 72.2809C276.465 72.1313 275.588 71.8819 274.786 71.5327V64.2747C275.387 64.4243 276.114 64.549 276.966 64.6488C277.819 64.7984 278.646 64.8733 279.448 64.8733C281.804 64.8733 283.533 64.3495 284.636 63.3019C285.789 62.3043 286.817 60.7579 287.719 58.6628L290.426 52.5271L290.276 59.6355L272.68 15.6384H281.779L294.788 49.3845H291.705L304.639 15.6384H313.813L295.841 60.5334C294.888 62.9278 293.685 65.0229 292.231 66.8187C290.828 68.6644 289.148 70.0861 287.193 71.0837C285.288 72.0814 283.032 72.5802 280.425 72.5802Z" fill="#0443D3"/>
</svg>
