<svg width="218" height="220" viewBox="0 0 218 220" fill="none" xmlns="http://www.w3.org/2000/svg">
<g clip-path="url(#clip0_155_41)">
<path d="M99.0095 146.807C103.961 145.783 108.762 145.8 114.268 146.085C118.381 146.287 123.199 146.673 128.319 146.673C136.578 156.342 143.93 168.663 162.227 176.872C163.369 177.375 163.906 178.55 163.906 180.229C163.906 181.068 163.906 183.536 163.906 183.586L53.1152 183.234V183.016L59.5276 175.613C77.4052 154.965 89.4579 148.771 99.0095 146.807Z" fill="#1F1F1F"/>
<path d="M122.779 25.7932C122.779 55.0689 120.16 51.3591 139.767 64.2679C145.659 68.1456 149.52 74.5076 149.251 81.558C149.218 82.5316 149.167 83.4548 149.117 84.2606C149 86.4764 149.822 88.6083 151.4 90.1862L162.345 101.131C163.537 102.323 164.074 104.052 163.637 105.697C160.465 117.548 150.813 137.239 132.331 138.179C107.419 139.455 90.1797 127.318 53.1487 170.107V115.181C52.3261 93.4764 65.0503 45.1984 122.779 25.7932ZM142.235 81.5915C141.63 77.4621 138.911 74.4405 136.158 74.8434C133.405 75.2462 131.659 78.9225 132.263 83.052C132.868 87.1815 135.587 90.203 138.34 89.8001C141.093 89.3973 142.839 85.721 142.218 81.5915H142.235Z" fill="#1F1F1F"/>
</g>
<defs>
<clipPath id="clip0_155_41">
<rect width="110.791" height="157.793" fill="white" transform="translate(53.1152 25.7932)"/>
</clipPath>
</defs>
</svg>
