<svg width="833" height="166" viewBox="0 0 833 166" fill="none" xmlns="http://www.w3.org/2000/svg">
<path d="M199.911 131.341C191.048 131.341 183.171 129.307 176.277 125.238C169.494 121.06 164.078 115.452 160.029 108.415C156.091 101.377 154.121 93.4055 154.121 84.499C154.121 75.7024 156.091 67.7854 160.029 60.7481C163.968 53.7109 169.384 48.213 176.277 44.2545C183.171 40.1861 191.048 38.1519 199.911 38.1519C205.929 38.1519 211.563 39.2515 216.815 41.4506C222.067 43.5398 226.608 46.4537 230.437 50.1922C234.376 53.9308 237.276 58.2741 239.136 63.2222L222.888 70.8092C221.028 66.191 218.019 62.5075 213.861 59.7585C209.813 56.8996 205.163 55.4702 199.911 55.4702C194.878 55.4702 190.337 56.7347 186.289 59.2637C182.35 61.6828 179.232 65.1464 176.934 69.6547C174.636 74.053 173.487 79.0561 173.487 84.6639C173.487 90.2717 174.636 95.3298 176.934 99.838C179.232 104.236 182.35 107.7 186.289 110.229C190.337 112.758 194.878 114.023 199.911 114.023C205.272 114.023 209.922 112.648 213.861 109.899C217.909 107.04 220.918 103.247 222.888 98.5185L239.136 106.271C237.385 110.999 234.54 115.287 230.602 119.136C226.772 122.874 222.231 125.843 216.979 128.042C211.728 130.241 206.038 131.341 199.911 131.341Z" fill="#1F1F1F"/>
<path d="M288.938 131.341C282.263 131.341 276.41 129.856 271.377 126.888C266.344 123.809 262.405 119.575 259.56 114.187C256.825 108.69 255.457 102.367 255.457 95.2198V40.1311H274.003V93.5704C274.003 97.6389 274.823 101.212 276.464 104.291C278.106 107.37 280.403 109.789 283.357 111.548C286.312 113.198 289.703 114.023 293.533 114.023C297.472 114.023 300.918 113.143 303.873 111.384C306.827 109.624 309.124 107.15 310.766 103.961C312.516 100.773 313.392 97.0341 313.392 92.7458V40.1311H331.773V129.362H314.212V111.878L316.182 114.187C314.103 119.685 310.656 123.919 305.842 126.888C301.028 129.856 295.393 131.341 288.938 131.341Z" fill="#1F1F1F"/>
<path d="M353.427 129.362V40.1311H371.152V58.1092L369.511 55.4702C371.48 49.6424 374.653 45.464 379.03 42.935C383.406 40.2961 388.658 38.9766 394.785 38.9766H400.201V55.965H392.488C386.361 55.965 381.382 57.8892 377.553 61.7378C373.833 65.4763 371.973 70.8642 371.973 77.9015V129.362H353.427Z" fill="#1F1F1F"/>
<path d="M412.889 129.362V40.1311H431.434V129.362H412.889ZM412.889 27.9258V6.48413H431.434V27.9258H412.889Z" fill="#1F1F1F"/>
<path d="M495.953 131.341C487.419 131.341 479.596 129.307 472.484 125.238C465.481 121.17 459.901 115.617 455.744 108.58C451.586 101.542 449.507 93.5704 449.507 84.6639C449.507 75.6474 451.586 67.6755 455.744 60.7481C459.901 53.7109 465.481 48.213 472.484 44.2545C479.486 40.1861 487.31 38.1519 495.953 38.1519C504.706 38.1519 512.529 40.1861 519.423 44.2545C526.425 48.213 531.95 53.7109 535.999 60.7481C540.157 67.6755 542.235 75.6474 542.235 84.6639C542.235 93.6804 540.157 101.707 535.999 108.745C531.841 115.782 526.261 121.335 519.258 125.403C512.256 129.362 504.488 131.341 495.953 131.341ZM495.953 114.023C501.205 114.023 505.855 112.758 509.904 110.229C513.952 107.7 517.125 104.236 519.423 99.838C521.83 95.3298 523.033 90.2717 523.033 84.6639C523.033 79.0561 521.83 74.053 519.423 69.6547C517.125 65.2564 513.952 61.7927 509.904 59.2637C505.855 56.7347 501.205 55.4702 495.953 55.4702C490.811 55.4702 486.161 56.7347 482.003 59.2637C477.955 61.7927 474.727 65.2564 472.32 69.6547C470.022 74.053 468.873 79.0561 468.873 84.6639C468.873 90.2717 470.022 95.3298 472.32 99.838C474.727 104.236 477.955 107.7 482.003 110.229C486.161 112.758 490.811 114.023 495.953 114.023Z" fill="#1F1F1F"/>
<path d="M593.166 131.341C584.084 131.341 576.097 129.087 569.204 124.578C562.42 120.07 557.661 114.023 554.925 106.435L569.204 99.6731C571.611 104.731 574.893 108.745 579.051 111.713C583.318 114.682 588.023 116.167 593.166 116.167C597.542 116.167 601.098 115.177 603.833 113.198C606.569 111.219 607.936 108.525 607.936 105.116C607.936 102.917 607.335 101.158 606.131 99.838C604.928 98.4086 603.396 97.254 601.536 96.3744C599.785 95.4947 597.98 94.835 596.12 94.3951L582.169 90.4366C574.51 88.2375 568.766 84.9388 564.937 80.5405C561.217 76.0322 559.357 70.8092 559.357 64.8715C559.357 59.4836 560.724 54.8104 563.46 50.852C566.195 46.7835 569.97 43.6498 574.784 41.4506C579.598 39.2515 585.014 38.1519 591.032 38.1519C599.129 38.1519 606.35 40.1861 612.696 44.2545C619.042 48.213 623.528 53.7658 626.154 60.9131L611.875 67.6755C610.125 63.3871 607.335 59.9784 603.505 57.4494C599.785 54.9204 595.573 53.6559 590.868 53.6559C586.82 53.6559 583.592 54.6455 581.185 56.6247C578.778 58.494 577.574 60.9681 577.574 64.0469C577.574 66.1361 578.121 67.8954 579.215 69.3248C580.309 70.6443 581.732 71.7439 583.482 72.6235C585.233 73.3932 587.038 74.053 588.898 74.6028L603.341 78.8911C610.672 80.9803 616.307 84.279 620.245 88.7873C624.184 93.1856 626.154 98.4635 626.154 104.621C626.154 109.899 624.731 114.572 621.887 118.641C619.151 122.599 615.322 125.733 610.398 128.042C605.475 130.241 599.73 131.341 593.166 131.341Z" fill="#1F1F1F"/>
<path d="M644.325 129.362V40.1311H662.871V129.362H644.325ZM644.325 27.9258V6.48413H662.871V27.9258H644.325Z" fill="#1F1F1F"/>
<path d="M722.958 130.351C713.658 130.351 706.437 127.712 701.294 122.434C696.152 117.156 693.581 109.734 693.581 100.168V56.9546H677.989V40.1311H680.451C684.609 40.1311 687.836 38.9216 690.134 36.5025C692.432 34.0835 693.581 30.7847 693.581 26.6064V19.679H712.126V40.1311H732.313V56.9546H712.126V99.3432C712.126 102.422 712.619 105.061 713.603 107.26C714.588 109.349 716.175 110.999 718.363 112.208C720.551 113.308 723.396 113.858 726.897 113.858C727.773 113.858 728.757 113.803 729.851 113.693C730.946 113.583 731.985 113.473 732.97 113.363V129.362C731.438 129.582 729.742 129.801 727.882 130.021C726.022 130.241 724.381 130.351 722.958 130.351Z" fill="#1F1F1F"/>
<path d="M758.946 165.648C756.758 165.648 754.569 165.428 752.381 164.988C750.302 164.658 748.387 164.108 746.637 163.338V147.34C747.95 147.67 749.536 147.944 751.396 148.164C753.256 148.494 755.062 148.659 756.812 148.659C761.955 148.659 765.729 147.505 768.137 145.195C770.653 142.996 772.896 139.588 774.865 134.969L780.774 121.445L780.446 137.114L742.041 40.1311H761.9L790.293 114.517H783.564L811.793 40.1311H831.816L792.591 139.093C790.512 144.371 787.886 148.989 784.713 152.947C781.649 157.016 777.984 160.15 773.717 162.349C769.559 164.548 764.635 165.648 758.946 165.648Z" fill="#1F1F1F"/>
<g clip-path="url(#clip0_155_33)">
<path d="M43.9909 116.571C48.7375 115.585 53.3393 115.601 58.617 115.876C62.5591 116.07 67.177 116.442 72.0845 116.442C80.001 125.756 87.0485 137.625 104.587 145.532C105.681 146.017 106.196 147.149 106.196 148.766C106.196 149.575 106.196 151.952 106.196 152L0 151.66V151.45L6.14649 144.319C23.2827 124.43 34.8355 118.463 43.9909 116.571Z" fill="#1F1F1F"/>
<path d="M66.7747 0C66.7747 28.2009 64.2647 24.6272 83.0581 37.0621C88.7058 40.7974 92.4066 46.926 92.1491 53.7174C92.117 54.6553 92.0687 55.5447 92.0204 56.3209C91.9078 58.4553 92.6962 60.5089 94.2087 62.0289L104.7 72.5719C105.842 73.72 106.357 75.3855 105.939 76.9702C102.897 88.3864 93.6455 107.354 75.9301 108.26C52.0521 109.489 35.5274 97.7974 0.0321724 139.015V86.1064C-0.756252 65.1983 11.4402 18.6928 66.7747 0ZM85.4234 53.7498C84.8442 49.7719 82.2375 46.8613 79.5987 47.2494C76.9599 47.6374 75.2865 51.1787 75.8658 55.1566C76.445 59.1345 79.0516 62.0451 81.6905 61.657C84.3293 61.2689 86.0027 57.7277 85.4073 53.7498H85.4234Z" fill="#1F1F1F"/>
</g>
<defs>
<clipPath id="clip0_155_33">
<rect width="106.196" height="152" fill="white"/>
</clipPath>
</defs>
</svg>
