<svg width="220" height="220" viewBox="0 0 220 220" fill="none" xmlns="http://www.w3.org/2000/svg">
<rect width="220" height="220" rx="48" fill="#1F1F1F"/>
<g clip-path="url(#clip0_155_52)">
<path d="M100.894 146.807C105.846 145.783 110.647 145.8 116.153 146.085C120.266 146.287 125.084 146.673 130.204 146.673C138.462 156.342 145.815 168.663 164.112 176.872C165.254 177.375 165.791 178.55 165.791 180.229C165.791 181.068 165.791 183.536 165.791 183.586L55 183.234V183.016L61.4124 175.613C79.2901 154.965 91.3428 148.771 100.894 146.807Z" fill="white"/>
<path d="M124.664 25.7932C124.664 55.0689 122.045 51.3591 141.652 64.2679C147.544 68.1456 151.405 74.5076 151.136 81.558C151.103 82.5316 151.052 83.4548 151.002 84.2606C150.884 86.4764 151.707 88.6083 153.285 90.1862L164.23 101.131C165.421 102.323 165.959 104.052 165.522 105.697C162.35 117.548 152.697 137.239 134.215 138.179C109.304 139.455 92.0645 127.318 55.0334 170.107V115.181C54.2109 93.4764 66.9351 45.1984 124.664 25.7932ZM144.119 81.5915C143.515 77.4621 140.796 74.4405 138.043 74.8434C135.29 75.2462 133.544 78.9225 134.148 83.052C134.753 87.1814 137.472 90.203 140.225 89.8001C142.978 89.3973 144.724 85.721 144.103 81.5915H144.119Z" fill="white"/>
</g>
<defs>
<clipPath id="clip0_155_52">
<rect width="110.791" height="157.793" fill="white" transform="translate(55 25.7932)"/>
</clipPath>
</defs>
</svg>
