<svg width="399" height="80" viewBox="0 0 399 80" fill="none" xmlns="http://www.w3.org/2000/svg">
<path d="M95.7554 63.0782C91.5104 63.0782 87.7369 62.1013 84.4352 60.1473C81.1859 58.1406 78.5917 55.4474 76.6526 52.0676C74.7659 48.6879 73.8225 44.8593 73.8225 40.5818C73.8225 36.3571 74.7659 32.5549 76.6526 29.1751C78.5393 25.7954 81.1335 23.155 84.4352 21.2539C87.7369 19.2999 91.5104 18.323 95.7554 18.323C98.6379 18.323 101.337 18.8511 103.853 19.9072C106.368 20.9106 108.543 22.31 110.377 24.1055C112.264 25.901 113.653 27.9869 114.544 30.3633L106.761 34.0071C105.87 31.7892 104.429 30.0201 102.438 28.6999C100.498 27.3268 98.271 26.6403 95.7554 26.6403C93.3446 26.6403 91.1697 27.2476 89.2306 28.4622C87.3439 29.624 85.8502 31.2875 84.7497 33.4526C83.6491 35.565 83.0988 37.9678 83.0988 40.661C83.0988 43.3542 83.6491 45.7834 84.7497 47.9486C85.8502 50.0609 87.3439 51.7244 89.2306 52.939C91.1697 54.1536 93.3446 54.7609 95.7554 54.7609C98.3234 54.7609 100.551 54.1008 102.438 52.7805C104.377 51.4075 105.818 49.5856 106.761 47.3149L114.544 51.0379C113.705 53.3086 112.343 55.3682 110.456 57.2165C108.622 59.012 106.447 60.4378 103.931 61.4939C101.416 62.5501 98.6903 63.0782 95.7554 63.0782Z" fill="white"/>
<path d="M138.398 63.0782C135.202 63.0782 132.398 62.3653 129.987 60.9395C127.576 59.4608 125.689 57.4277 124.327 54.8401C123.017 52.1997 122.362 49.1632 122.362 45.7306V19.2735H131.245V44.9385C131.245 46.8924 131.638 48.6087 132.424 50.0873C133.21 51.5659 134.311 52.7277 135.726 53.5727C137.141 54.3648 138.765 54.7609 140.6 54.7609C142.486 54.7609 144.137 54.3384 145.552 53.4935C146.967 52.6485 148.068 51.4603 148.854 49.9289C149.692 48.3974 150.112 46.6019 150.112 44.5424V19.2735H158.916V62.1277H150.505V53.7311L151.448 54.8401C150.452 57.4805 148.802 59.5136 146.496 60.9395C144.19 62.3653 141.491 63.0782 138.398 63.0782Z" fill="white"/>
<path d="M169.288 62.1277V19.2735H177.778V27.9077L176.992 26.6403C177.936 23.8415 179.456 21.8348 181.552 20.6202C183.648 19.3528 186.164 18.7191 189.099 18.7191H191.693V26.878H187.998C185.063 26.878 182.679 27.8021 180.844 29.6504C179.063 31.4459 178.172 34.0335 178.172 37.4133V62.1277H169.288Z" fill="white"/>
<path d="M197.77 62.1277V19.2735H206.653V62.1277H197.77ZM197.77 13.4118V3.11414H206.653V13.4118H197.77Z" fill="white"/>
<path d="M237.557 63.0782C233.469 63.0782 229.722 62.1013 226.316 60.1473C222.962 58.1934 220.289 55.5266 218.297 52.1468C216.306 48.7671 215.31 44.9385 215.31 40.661C215.31 36.3307 216.306 32.5021 218.297 29.1751C220.289 25.7954 222.962 23.155 226.316 21.2539C229.67 19.2999 233.417 18.323 237.557 18.323C241.75 18.323 245.497 19.2999 248.799 21.2539C252.153 23.155 254.8 25.7954 256.739 29.1751C258.73 32.5021 259.726 36.3307 259.726 40.661C259.726 44.9913 258.73 48.8463 256.739 52.2261C254.747 55.6058 252.074 58.2726 248.72 60.2265C245.366 62.1277 241.645 63.0782 237.557 63.0782ZM237.557 54.7609C240.073 54.7609 242.3 54.1536 244.239 52.939C246.178 51.7244 247.698 50.0609 248.799 47.9486C249.952 45.7834 250.528 43.3542 250.528 40.661C250.528 37.9678 249.952 35.565 248.799 33.4526C247.698 31.3403 246.178 29.6768 244.239 28.4622C242.3 27.2476 240.073 26.6403 237.557 26.6403C235.094 26.6403 232.867 27.2476 230.875 28.4622C228.936 29.6768 227.39 31.3403 226.237 33.4526C225.136 35.565 224.586 37.9678 224.586 40.661C224.586 43.3542 225.136 45.7834 226.237 47.9486C227.39 50.0609 228.936 51.7244 230.875 52.939C232.867 54.1536 235.094 54.7609 237.557 54.7609Z" fill="white"/>
<path d="M284.121 63.0782C279.771 63.0782 275.945 61.9956 272.644 59.8305C269.394 57.6653 267.115 54.7609 265.804 51.1171L272.644 47.8694C273.797 50.2985 275.369 52.2261 277.36 53.6519C279.404 55.0777 281.658 55.7906 284.121 55.7906C286.217 55.7906 287.921 55.3154 289.231 54.3648C290.541 53.4142 291.196 52.1204 291.196 50.4834C291.196 49.4272 290.908 48.5823 290.332 47.9486C289.755 47.2621 289.021 46.7076 288.13 46.2851C287.292 45.8626 286.427 45.5458 285.536 45.3345L278.854 43.4334C275.185 42.3773 272.434 40.793 270.6 38.6807C268.818 36.5155 267.927 34.0071 267.927 31.1555C267.927 28.5678 268.582 26.3235 269.892 24.4224C271.202 22.4685 273.011 20.9634 275.316 19.9072C277.622 18.8511 280.217 18.323 283.099 18.323C286.977 18.323 290.436 19.2999 293.476 21.2539C296.516 23.155 298.664 25.8218 299.922 29.2544L293.083 32.5021C292.244 30.4425 290.908 28.8055 289.074 27.5909C287.292 26.3763 285.274 25.769 283.021 25.769C281.081 25.769 279.535 26.2443 278.382 27.1948C277.229 28.0926 276.653 29.2808 276.653 30.7594C276.653 31.7628 276.915 32.6077 277.439 33.2942C277.963 33.9279 278.644 34.456 279.483 34.8785C280.322 35.2481 281.186 35.565 282.077 35.829L288.995 37.8885C292.506 38.8919 295.205 40.4762 297.092 42.6413C298.979 44.7537 299.922 47.2885 299.922 50.2457C299.922 52.7805 299.241 55.0249 297.878 56.9788C296.568 58.8799 294.734 60.385 292.375 61.4939C290.017 62.5501 287.266 63.0782 284.121 63.0782Z" fill="white"/>
<path d="M308.626 62.1277V19.2735H317.509V62.1277H308.626ZM308.626 13.4118V3.11414H317.509V13.4118H308.626Z" fill="white"/>
<path d="M346.291 62.6029C341.836 62.6029 338.377 61.3355 335.914 58.8007C333.451 56.2659 332.219 52.7013 332.219 48.107V27.3532H324.751V19.2735H325.93C327.922 19.2735 329.468 18.6927 330.568 17.5309C331.669 16.3691 332.219 14.7848 332.219 12.7781V9.45116H341.102V19.2735H350.772V27.3532H341.102V47.7109C341.102 49.1896 341.338 50.457 341.81 51.5131C342.282 52.5165 343.041 53.3086 344.09 53.8895C345.138 54.4176 346.5 54.6817 348.178 54.6817C348.597 54.6817 349.068 54.6552 349.593 54.6024C350.117 54.5496 350.615 54.4968 351.086 54.444V62.1277C350.352 62.2333 349.54 62.3389 348.649 62.4445C347.758 62.5501 346.972 62.6029 346.291 62.6029Z" fill="white"/>
<path d="M363.528 79.5545C362.48 79.5545 361.432 79.4488 360.384 79.2376C359.388 79.0792 358.471 78.8151 357.633 78.4455V70.7618C358.261 70.9203 359.021 71.0523 359.912 71.1579C360.803 71.3163 361.668 71.3955 362.506 71.3955C364.97 71.3955 366.778 70.8411 367.931 69.7321C369.136 68.6759 370.211 67.0388 371.154 64.8209L373.984 58.3254L373.827 65.8507L355.431 19.2735H364.943L378.543 54.9985H375.32L388.842 19.2735H398.432L379.644 66.8012C378.648 69.336 377.39 71.554 375.871 73.4551C374.403 75.409 372.648 76.914 370.604 77.9702C368.612 79.0264 366.254 79.5545 363.528 79.5545Z" fill="white"/>
<g clip-path="url(#clip0_1419_587)">
<path d="M21.0713 55.9848C23.3449 55.5111 25.5491 55.5188 28.077 55.6509C29.9653 55.7441 32.1772 55.9227 34.5279 55.9227C38.3198 60.3959 41.6955 66.0961 50.0963 69.8936C50.6204 70.1266 50.867 70.6702 50.867 71.4468C50.867 71.8351 50.867 72.9767 50.867 73L0 72.8369V72.736L2.94412 69.3112C11.1522 59.759 16.6859 56.8934 21.0713 55.9848Z" fill="white"/>
<path d="M31.9842 0C31.9842 13.5438 30.7819 11.8276 39.7838 17.7996C42.489 19.5935 44.2617 22.5368 44.1384 25.7985C44.1229 26.2489 44.0998 26.6761 44.0767 27.0488C44.0228 28.0739 44.4004 29.0602 45.1249 29.7902L50.1499 34.8536C50.6971 35.405 50.9437 36.2049 50.7434 36.966C49.2867 42.4487 44.8551 51.5582 36.3696 51.9931C24.9322 52.5833 17.017 46.9685 0.0151046 66.7639V41.3537C-0.362544 31.3123 5.47945 8.97745 31.9842 0ZM40.9168 25.814C40.6393 23.9036 39.3908 22.5057 38.1268 22.6921C36.8628 22.8785 36.0613 24.5793 36.3388 26.4897C36.6162 28.4001 37.8648 29.798 39.1287 29.6116C40.3927 29.4252 41.1942 27.7245 40.9091 25.814H40.9168Z" fill="white"/>
</g>
<defs>
<clipPath id="clip0_1419_587">
<rect width="50.867" height="73" fill="white"/>
</clipPath>
</defs>
</svg>
