<svg width="495" height="328" viewBox="0 0 495 328" fill="none" xmlns="http://www.w3.org/2000/svg">
<path d="M33.4457 302.997C26.9723 302.997 21.2182 301.514 16.1834 298.549C11.2285 295.504 7.27253 291.417 4.31557 286.288C1.43852 281.159 0 275.349 0 268.858C0 262.447 1.43852 256.677 4.31557 251.548C7.19262 246.419 11.1486 242.412 16.1834 239.527C21.2182 236.562 26.9723 235.08 33.4457 235.08C37.8412 235.08 41.9569 235.881 45.793 237.484C49.6291 239.007 52.9457 241.13 55.7428 243.855C58.6198 246.58 60.7377 249.745 62.0963 253.351L50.2284 258.881C48.8698 255.515 46.6721 252.83 43.6352 250.827C40.6782 248.743 37.2817 247.702 33.4457 247.702C29.7694 247.702 26.4528 248.623 23.4959 250.466C20.6188 252.229 18.3412 254.754 16.6629 258.039C14.9846 261.245 14.1455 264.891 14.1455 268.978C14.1455 273.065 14.9846 276.752 16.6629 280.037C18.3412 283.243 20.6188 285.767 23.4959 287.61C26.4528 289.454 29.7694 290.375 33.4457 290.375C37.3616 290.375 40.7582 289.373 43.6352 287.37C46.5922 285.286 48.7899 282.522 50.2284 279.076L62.0963 284.725C60.8176 288.171 58.7397 291.297 55.8627 294.102C53.0655 296.826 49.7489 298.99 45.9129 300.593C42.0768 302.196 37.9211 302.997 33.4457 302.997Z" fill="#1F1F1F"/>
<path d="M98.4724 302.997C93.5974 302.997 89.3217 301.915 85.6455 299.751C81.9693 297.507 79.0922 294.422 77.0144 290.495C75.0164 286.488 74.0175 281.88 74.0175 276.672V236.522H87.5636V275.469C87.5636 278.435 88.1629 281.039 89.3617 283.283C90.5605 285.527 92.2387 287.29 94.3965 288.572C96.5543 289.774 99.0318 290.375 101.829 290.375C104.706 290.375 107.223 289.734 109.381 288.452C111.539 287.17 113.217 285.366 114.416 283.042C115.695 280.718 116.334 277.994 116.334 274.868V236.522H129.76V301.554H116.933V288.812L118.372 290.495C116.853 294.502 114.336 297.588 110.82 299.751C107.303 301.915 103.188 302.997 98.4724 302.997Z" fill="#1F1F1F"/>
<path d="M145.576 301.554V236.522H158.523V249.625L157.324 247.702C158.763 243.454 161.081 240.409 164.277 238.566C167.474 236.642 171.31 235.681 175.785 235.681H179.741V248.062H174.107C169.632 248.062 165.996 249.465 163.198 252.269C160.481 254.994 159.123 258.921 159.123 264.05V301.554H145.576Z" fill="#1F1F1F"/>
<path d="M189.008 301.554V236.522H202.555V301.554H189.008ZM189.008 227.627V212H202.555V227.627H189.008Z" fill="#1F1F1F"/>
<path d="M249.68 302.997C243.447 302.997 237.733 301.514 232.538 298.549C227.423 295.584 223.347 291.537 220.31 286.408C217.274 281.279 215.755 275.469 215.755 268.978C215.755 262.407 217.274 256.597 220.31 251.548C223.347 246.419 227.423 242.412 232.538 239.527C237.653 236.562 243.367 235.08 249.68 235.08C256.074 235.08 261.788 236.562 266.823 239.527C271.937 242.412 275.973 246.419 278.93 251.548C281.967 256.597 283.486 262.407 283.486 268.978C283.486 275.55 281.967 281.4 278.93 286.529C275.893 291.657 271.818 295.704 266.703 298.669C261.588 301.554 255.914 302.997 249.68 302.997ZM249.68 290.375C253.516 290.375 256.913 289.454 259.87 287.61C262.827 285.767 265.144 283.243 266.823 280.037C268.581 276.752 269.46 273.065 269.46 268.978C269.46 264.891 268.581 261.245 266.823 258.039C265.144 254.834 262.827 252.31 259.87 250.466C256.913 248.623 253.516 247.702 249.68 247.702C245.924 247.702 242.528 248.623 239.491 250.466C236.534 252.31 234.176 254.834 232.418 258.039C230.74 261.245 229.901 264.891 229.901 268.978C229.901 273.065 230.74 276.752 232.418 280.037C234.176 283.243 236.534 285.767 239.491 287.61C242.528 289.454 245.924 290.375 249.68 290.375Z" fill="#1F1F1F"/>
<path d="M320.686 302.997C314.053 302.997 308.219 301.354 303.184 298.068C298.229 294.783 294.752 290.375 292.754 284.846L303.184 279.917C304.942 283.603 307.34 286.528 310.376 288.692C313.493 290.856 316.93 291.938 320.686 291.938C323.883 291.938 326.48 291.217 328.478 289.774C330.476 288.332 331.475 286.368 331.475 283.884C331.475 282.281 331.035 280.999 330.156 280.037C329.277 278.996 328.158 278.154 326.8 277.513C325.521 276.872 324.202 276.391 322.844 276.07L312.654 273.185C307.06 271.583 302.864 269.179 300.067 265.973C297.35 262.687 295.991 258.881 295.991 254.553C295.991 250.627 296.99 247.221 298.988 244.336C300.986 241.371 303.743 239.087 307.26 237.484C310.776 235.881 314.732 235.08 319.127 235.08C325.041 235.08 330.316 236.562 334.951 239.527C339.586 242.412 342.863 246.459 344.781 251.668L334.352 256.597C333.073 253.472 331.035 250.987 328.238 249.144C325.521 247.301 322.444 246.379 319.008 246.379C316.051 246.379 313.693 247.101 311.935 248.543C310.177 249.905 309.298 251.708 309.298 253.952C309.298 255.475 309.697 256.757 310.496 257.799C311.295 258.761 312.334 259.562 313.613 260.203C314.892 260.764 316.21 261.245 317.569 261.646L328.118 264.771C333.473 266.294 337.588 268.698 340.465 271.983C343.343 275.189 344.781 279.036 344.781 283.523C344.781 287.37 343.742 290.776 341.664 293.741C339.666 296.626 336.869 298.91 333.273 300.593C329.677 302.196 325.481 302.997 320.686 302.997Z" fill="#1F1F1F"/>
<path d="M358.054 301.554V236.522H371.6V301.554H358.054ZM358.054 227.627V212H371.6V227.627H358.054Z" fill="#1F1F1F"/>
<path d="M415.489 302.276C408.696 302.276 403.421 300.352 399.665 296.506C395.909 292.659 394.031 287.25 394.031 280.278V248.783H382.643V236.522H384.441C387.478 236.522 389.835 235.641 391.513 233.878C393.192 232.115 394.031 229.711 394.031 226.665V221.617H407.577V236.522H422.322V248.783H407.577V279.677C407.577 281.921 407.937 283.844 408.656 285.447C409.375 286.969 410.534 288.171 412.132 289.053C413.731 289.854 415.808 290.255 418.366 290.255C419.005 290.255 419.724 290.215 420.524 290.135C421.323 290.055 422.082 289.974 422.801 289.894V301.554C421.682 301.715 420.444 301.875 419.085 302.035C417.726 302.196 416.528 302.276 415.489 302.276Z" fill="#1F1F1F"/>
<path d="M441.775 328C440.176 328 438.578 327.84 436.98 327.519C435.461 327.279 434.063 326.878 432.784 326.317V314.657C433.743 314.897 434.902 315.098 436.26 315.258C437.619 315.498 438.938 315.619 440.216 315.619C443.972 315.619 446.73 314.777 448.488 313.094C450.326 311.492 451.964 309.007 453.403 305.641L457.718 295.784L457.479 307.204L429.427 236.522H443.932L464.671 290.736H459.756L480.375 236.522H495L466.349 308.647C464.831 312.493 462.913 315.859 460.595 318.744C458.358 321.709 455.68 323.993 452.564 325.596C449.527 327.199 445.93 328 441.775 328Z" fill="#1F1F1F"/>
<g clip-path="url(#clip0_155_26)">
<path d="M237.991 116.571C242.738 115.585 247.339 115.601 252.617 115.876C256.559 116.07 261.177 116.442 266.085 116.442C274.001 125.756 281.049 137.625 298.587 145.532C299.681 146.017 300.196 147.149 300.196 148.766C300.196 149.575 300.196 151.952 300.196 152L194 151.66V151.45L200.146 144.319C217.283 124.43 228.836 118.463 237.991 116.571Z" fill="#1F1F1F"/>
<path d="M260.775 0C260.775 28.2009 258.265 24.6272 277.058 37.0621C282.706 40.7974 286.407 46.926 286.149 53.7174C286.117 54.6553 286.069 55.5447 286.02 56.3209C285.908 58.4553 286.696 60.5089 288.209 62.0289L298.7 72.5719C299.842 73.72 300.357 75.3855 299.939 76.9702C296.897 88.3864 287.646 107.354 269.93 108.26C246.052 109.489 229.527 97.7974 194.032 139.015V86.1064C193.244 65.1983 205.44 18.6928 260.775 0ZM279.423 53.7498C278.844 49.7719 276.238 46.8613 273.599 47.2494C270.96 47.6374 269.287 51.1787 269.866 55.1566C270.445 59.1345 273.052 62.0451 275.69 61.657C278.329 61.2689 280.003 57.7277 279.407 53.7498H279.423Z" fill="#1F1F1F"/>
</g>
<defs>
<clipPath id="clip0_155_26">
<rect width="106.196" height="152" fill="white" transform="translate(194)"/>
</clipPath>
</defs>
</svg>
