<svg width="174" height="174" viewBox="0 0 174 174" fill="none" xmlns="http://www.w3.org/2000/svg">
<rect width="174" height="174" rx="40" fill="#0443D3"/>
<g clip-path="url(#clip0_5_305)">
<path d="M78.996 116.111C82.9126 115.301 86.7097 115.314 91.0644 115.54C94.3172 115.699 98.1275 116.005 102.177 116.005C108.709 123.652 114.524 133.397 128.996 139.889C129.898 140.288 130.323 141.217 130.323 142.545C130.323 143.208 130.323 145.16 130.323 145.2L42.6978 144.921V144.748L47.7694 138.894C61.909 122.563 71.4416 117.664 78.996 116.111Z" fill="white"/>
<path d="M97.7954 20.3999C97.7954 43.5543 95.7242 40.6202 111.231 50.8299C115.891 53.8968 118.945 58.9286 118.733 64.5048C118.706 65.2748 118.666 66.005 118.626 66.6423C118.533 68.3948 119.184 70.0809 120.432 71.3289L129.088 79.9853C130.031 80.9279 130.456 82.2954 130.111 83.5965C127.601 92.9698 119.967 108.543 105.35 109.287C85.6473 110.296 72.0122 100.697 42.724 134.539V91.0978C42.0735 73.9311 52.1371 35.7476 97.7954 20.3999ZM113.183 64.5313C112.705 61.2653 110.554 58.8755 108.377 59.1941C106.199 59.5128 104.819 62.4203 105.297 65.6864C105.775 68.9524 107.925 71.3422 110.103 71.0236C112.28 70.7049 113.661 67.7974 113.17 64.5313H113.183Z" fill="white"/>
</g>
<defs>
<clipPath id="clip0_5_305">
<rect width="87.6255" height="124.8" fill="white" transform="translate(42.6978 20.3999)"/>
</clipPath>
</defs>
</svg>
