<svg width="687" height="160" viewBox="0 0 687 160" fill="none" xmlns="http://www.w3.org/2000/svg">
<path d="M52.972 124.968C44.116 124.968 36.244 122.945 29.356 118.9C22.5773 114.745 17.1653 109.169 13.12 102.172C9.184 95.1747 7.216 87.248 7.216 78.392C7.216 69.6453 9.184 61.7733 13.12 54.776C17.056 47.7787 22.468 42.312 29.356 38.376C36.244 34.3307 44.116 32.308 52.972 32.308C58.9853 32.308 64.616 33.4013 69.864 35.588C75.112 37.6653 79.6493 40.5627 83.476 44.28C87.412 47.9973 90.3093 52.316 92.168 57.236L75.932 64.78C74.0733 60.188 71.0667 56.5253 66.912 53.792C62.8667 50.9493 58.22 49.528 52.972 49.528C47.9427 49.528 43.4053 50.7853 39.36 53.3C35.424 55.7053 32.308 59.1493 30.012 63.632C27.716 68.0053 26.568 72.98 26.568 78.556C26.568 84.132 27.716 89.1613 30.012 93.644C32.308 98.0173 35.424 101.461 39.36 103.976C43.4053 106.491 47.9427 107.748 52.972 107.748C58.3293 107.748 62.976 106.381 66.912 103.648C70.9573 100.805 73.964 97.0333 75.932 92.332L92.168 100.04C90.4187 104.741 87.576 109.005 83.64 112.832C79.8133 116.549 75.276 119.501 70.028 121.688C64.78 123.875 59.0947 124.968 52.972 124.968ZM141.933 124.968C135.264 124.968 129.414 123.492 124.385 120.54C119.356 117.479 115.42 113.269 112.577 107.912C109.844 102.445 108.477 96.1587 108.477 89.052V34.276H127.009V87.412C127.009 91.4573 127.829 95.0107 129.469 98.072C131.109 101.133 133.405 103.539 136.357 105.288C139.309 106.928 142.698 107.748 146.525 107.748C150.461 107.748 153.905 106.873 156.857 105.124C159.809 103.375 162.105 100.915 163.745 97.744C165.494 94.5733 166.369 90.856 166.369 86.592V34.276H184.737V123H167.189V105.616L169.157 107.912C167.08 113.379 163.636 117.588 158.825 120.54C154.014 123.492 148.384 124.968 141.933 124.968ZM206.375 123V34.276H224.087V52.152L222.447 49.528C224.415 43.7333 227.585 39.5787 231.959 37.064C236.332 34.44 241.58 33.128 247.703 33.128H253.115V50.02H245.407C239.284 50.02 234.309 51.9333 230.483 55.76C226.765 59.4773 224.907 64.8347 224.907 71.832V123H206.375ZM265.793 123V34.276H284.325V123H265.793ZM265.793 22.14V0.819989H284.325V22.14H265.793ZM348.796 124.968C340.268 124.968 332.451 122.945 325.344 118.9C318.347 114.855 312.771 109.333 308.616 102.336C304.461 95.3387 302.384 87.412 302.384 78.556C302.384 69.5907 304.461 61.664 308.616 54.776C312.771 47.7787 318.347 42.312 325.344 38.376C332.341 34.3307 340.159 32.308 348.796 32.308C357.543 32.308 365.36 34.3307 372.248 38.376C379.245 42.312 384.767 47.7787 388.812 54.776C392.967 61.664 395.044 69.5907 395.044 78.556C395.044 87.5213 392.967 95.5027 388.812 102.5C384.657 109.497 379.081 115.019 372.084 119.064C365.087 123 357.324 124.968 348.796 124.968ZM348.796 107.748C354.044 107.748 358.691 106.491 362.736 103.976C366.781 101.461 369.952 98.0173 372.248 93.644C374.653 89.1613 375.856 84.132 375.856 78.556C375.856 72.98 374.653 68.0053 372.248 63.632C369.952 59.2587 366.781 55.8147 362.736 53.3C358.691 50.7853 354.044 49.528 348.796 49.528C343.657 49.528 339.011 50.7853 334.856 53.3C330.811 55.8147 327.585 59.2587 325.18 63.632C322.884 68.0053 321.736 72.98 321.736 78.556C321.736 84.132 322.884 89.1613 325.18 93.644C327.585 98.0173 330.811 101.461 334.856 103.976C339.011 106.491 343.657 107.748 348.796 107.748ZM445.937 124.968C436.862 124.968 428.881 122.727 421.993 118.244C415.214 113.761 410.458 107.748 407.724 100.204L421.993 93.48C424.398 98.5093 427.678 102.5 431.833 105.452C436.097 108.404 440.798 109.88 445.937 109.88C450.31 109.88 453.863 108.896 456.597 106.928C459.33 104.96 460.697 102.281 460.697 98.892C460.697 96.7053 460.095 94.956 458.893 93.644C457.69 92.2227 456.159 91.0747 454.301 90.2C452.551 89.3253 450.747 88.6693 448.889 88.232L434.949 84.296C427.295 82.1093 421.555 78.8293 417.729 74.456C414.011 69.9733 412.153 64.78 412.153 58.876C412.153 53.5187 413.519 48.872 416.253 44.936C418.986 40.8907 422.758 37.7747 427.569 35.588C432.379 33.4013 437.791 32.308 443.805 32.308C451.895 32.308 459.111 34.3307 465.453 38.376C471.794 42.312 476.277 47.8333 478.901 54.94L464.633 61.664C462.883 57.4 460.095 54.0107 456.269 51.496C452.551 48.9813 448.342 47.724 443.641 47.724C439.595 47.724 436.37 48.708 433.965 50.676C431.559 52.5347 430.357 54.9947 430.357 58.056C430.357 60.1333 430.903 61.8827 431.997 63.304C433.09 64.616 434.511 65.7093 436.261 66.584C438.01 67.3493 439.814 68.0053 441.673 68.552L456.105 72.816C463.43 74.8933 469.061 78.1733 472.997 82.656C476.933 87.0293 478.901 92.2773 478.901 98.4C478.901 103.648 477.479 108.295 474.637 112.34C471.903 116.276 468.077 119.392 463.157 121.688C458.237 123.875 452.497 124.968 445.937 124.968ZM497.058 123V34.276H515.59V123H497.058ZM497.058 22.14V0.819989H515.59V22.14H497.058ZM575.634 123.984C566.34 123.984 559.124 121.36 553.986 116.112C548.847 110.864 546.278 103.484 546.278 93.972V51.004H530.698V34.276H533.158C537.312 34.276 540.538 33.0733 542.834 30.668C545.13 28.2627 546.278 24.9827 546.278 20.828V13.94H564.81V34.276H584.982V51.004H564.81V93.152C564.81 96.2133 565.302 98.8373 566.286 101.024C567.27 103.101 568.855 104.741 571.042 105.944C573.228 107.037 576.071 107.584 579.57 107.584C580.444 107.584 581.428 107.529 582.522 107.42C583.615 107.311 584.654 107.201 585.638 107.092V123C584.107 123.219 582.412 123.437 580.554 123.656C578.695 123.875 577.055 123.984 575.634 123.984ZM611.594 159.08C609.408 159.08 607.221 158.861 605.034 158.424C602.957 158.096 601.044 157.549 599.294 156.784V140.876C600.606 141.204 602.192 141.477 604.05 141.696C605.909 142.024 607.713 142.188 609.462 142.188C614.601 142.188 618.373 141.04 620.778 138.744C623.293 136.557 625.534 133.168 627.502 128.576L633.406 115.128L633.078 130.708L594.702 34.276H614.546L642.918 108.24H636.194L664.402 34.276H684.41L645.214 132.676C643.137 137.924 640.513 142.516 637.342 146.452C634.281 150.497 630.618 153.613 626.354 155.8C622.2 157.987 617.28 159.08 611.594 159.08Z" fill="#1F1F1F"/>
</svg>
