<svg width="171" height="174" viewBox="0 0 171 174" fill="none" xmlns="http://www.w3.org/2000/svg">
<g clip-path="url(#clip0_1419_562)">
<path d="M77.9961 116.111C81.9127 115.301 85.7098 115.314 90.0645 115.54C93.3173 115.699 97.1277 116.005 101.177 116.005C107.709 123.652 113.524 133.397 127.996 139.889C128.899 140.288 129.323 141.217 129.323 142.545C129.323 143.209 129.323 145.16 129.323 145.2L41.6979 144.921V144.749L46.7695 138.894C60.9091 122.563 70.4417 117.664 77.9961 116.111Z" fill="#0443D3"/>
<path d="M96.7956 20.4C96.7956 43.5544 94.7245 40.6202 110.232 50.83C114.892 53.8968 117.945 58.9287 117.733 64.5048C117.706 65.2749 117.666 66.0051 117.627 66.6424C117.534 68.3949 118.184 70.081 119.432 71.329L128.089 79.9854C129.031 80.928 129.456 82.2955 129.111 83.5966C126.602 92.9699 118.968 108.543 104.35 109.287C84.6475 110.296 71.0124 100.697 41.7243 134.539V91.0979C41.0737 73.9312 51.1374 35.7477 96.7956 20.4ZM112.183 64.5314C111.705 61.2654 109.554 58.8756 107.377 59.1942C105.2 59.5128 103.819 62.4204 104.297 65.6865C104.775 68.9525 106.926 71.3423 109.103 71.0237C111.28 70.705 112.661 67.7974 112.17 64.5314H112.183Z" fill="#0443D3"/>
</g>
<defs>
<clipPath id="clip0_1419_562">
<rect width="87.6255" height="124.8" fill="white" transform="translate(41.6979 20.4)"/>
</clipPath>
</defs>
</svg>
